HIERARCHY
ROOT Hips
{
  OFFSET 0.0502701 92.146 0
  CHANNELS 6 Xposition Yposition Zposition Zrotation Xrotation Yrotation
  JOINT Bip01_Pelvis
  {
    OFFSET 0 0 0
    CHANNELS 6 Xposition Yposition Zposition Zrotation Xrotation Yrotation
    JOINT BN_Tai_01
    {
      OFFSET -4.6544 -2.06234 0
      CHANNELS 6 Xposition Yposition Zposition Zrotation Xrotation Yrotation
      JOINT BN_Tai_R_01
      {
        OFFSET 10.2279 -0.119812 3.68897
        CHANNELS 6 Xposition Yposition Zposition Zrotation Xrotation Yrotation
        JOINT BN_Tai_R_02
        {
          OFFSET 15.0421 0 1.52588e-005
          CHANNELS 6 Xposition Yposition Zposition Zrotation Xrotation Yrotation
          End Site
          {
            OFFSET 0 0 0
          }
        }
      }
      JOINT BN_Tai_L_01
      {
        OFFSET 10.2279 -0.119797 -3.68907
        CHANNELS 6 Xposition Yposition Zposition Zrotation Xrotation Yrotation
        JOINT BN_Tai_L_02
        {
          OFFSET 15.0421 0 0
          CHANNELS 6 Xposition Yposition Zposition Zrotation Xrotation Yrotation
          End Site
          {
            OFFSET 0 0 0
          }
        }
      }
    }
    JOINT Bip01_Spine
    {
      OFFSET 2.7319 1.49192 0
      CHANNELS 6 Xposition Yposition Zposition Zrotation Xrotation Yrotation
      JOINT Bip01_R_Thigh
      {
        OFFSET -2.85206 -1.24717 -6.20578
        CHANNELS 6 Xposition Yposition Zposition Zrotation Xrotation Yrotation
        JOINT Bip01_R_Calf
        {
          OFFSET 6.73247 0 0
          CHANNELS 6 Xposition Yposition Zposition Zrotation Xrotation Yrotation
          JOINT Bip01_R_HorseLink
          {
            OFFSET 8.08523 0 0
            CHANNELS 6 Xposition Yposition Zposition Zrotation Xrotation Yrotation
            JOINT Bip01_R_Foot
            {
              OFFSET 8.97518 0 0
              CHANNELS 6 Xposition Yposition Zposition Zrotation Xrotation Yrotation
              JOINT BN_Toe_R_30
              {
                OFFSET 1.58762 -0.234982 -0.295153
                CHANNELS 6 Xposition Yposition Zposition Zrotation Xrotation Yrotation
                JOINT BN_Toe_R_31
                {
                  OFFSET 3.03849 0 0
                  CHANNELS 6 Xposition Yposition Zposition Zrotation Xrotation Yrotation
                  End Site
                  {
                    OFFSET 0 0 0
                  }
                }
              }
              JOINT BN_Toe_R_00
              {
                OFFSET 1.65463 0.933666 1.02414
                CHANNELS 6 Xposition Yposition Zposition Zrotation Xrotation Yrotation
                JOINT BN_Toe_R_01
                {
                  OFFSET 3.51775 0 0
                  CHANNELS 6 Xposition Yposition Zposition Zrotation Xrotation Yrotation
                  End Site
                  {
                    OFFSET 0 0 0
                  }
                }
              }
              JOINT BN_Toe_R_20
              {
                OFFSET 1.47309 1.0106 -1.16708
                CHANNELS 6 Xposition Yposition Zposition Zrotation Xrotation Yrotation
                JOINT BN_Toe_R_21
                {
                  OFFSET 3.94896 0 0
                  CHANNELS 6 Xposition Yposition Zposition Zrotation Xrotation Yrotation
                  End Site
                  {
                    OFFSET 0 0 0
                  }
                }
              }
              JOINT BN_Toe_R_10
              {
                OFFSET 1.07522 1.64225 0.0223596
                CHANNELS 6 Xposition Yposition Zposition Zrotation Xrotation Yrotation
                JOINT BN_Toe_R_11
                {
                  OFFSET 4.09655 0 0
                  CHANNELS 6 Xposition Yposition Zposition Zrotation Xrotation Yrotation
                  End Site
                  {
                    OFFSET 0 0 0
                  }
                }
              }
              JOINT Bip01_R_Toe0
              {
                OFFSET 2.04238 1.88275 0
                CHANNELS 6 Xposition Yposition Zposition Zrotation Xrotation Yrotation
                End Site
                {
                  OFFSET 0 0 0
                }
              }
            }
          }
        }
      }
      JOINT Bip01_L_Thigh
      {
        OFFSET -2.85154 -1.24849 6.20577
        CHANNELS 6 Xposition Yposition Zposition Zrotation Xrotation Yrotation
        JOINT Bip01_L_Calf
        {
          OFFSET 6.73247 0 0
          CHANNELS 6 Xposition Yposition Zposition Zrotation Xrotation Yrotation
          JOINT Bip01_L_HorseLink
          {
            OFFSET 8.08524 0 0
            CHANNELS 6 Xposition Yposition Zposition Zrotation Xrotation Yrotation
            JOINT Bip01_L_Foot
            {
              OFFSET 8.97521 0 0
              CHANNELS 6 Xposition Yposition Zposition Zrotation Xrotation Yrotation
              JOINT BN_Toe_L_00
              {
                OFFSET 1.65461 0.933701 -1.02419
                CHANNELS 6 Xposition Yposition Zposition Zrotation Xrotation Yrotation
                JOINT BN_Toe_L_01
                {
                  OFFSET 3.51778 0 0
                  CHANNELS 6 Xposition Yposition Zposition Zrotation Xrotation Yrotation
                  End Site
                  {
                    OFFSET 0 0 0
                  }
                }
              }
              JOINT BN_Toe_L_10
              {
                OFFSET 1.07523 1.6422 -0.0221281
                CHANNELS 6 Xposition Yposition Zposition Zrotation Xrotation Yrotation
                JOINT BN_Toe_L_11
                {
                  OFFSET 4.09657 0 0
                  CHANNELS 6 Xposition Yposition Zposition Zrotation Xrotation Yrotation
                  End Site
                  {
                    OFFSET 0 0 0
                  }
                }
              }
              JOINT BN_Toe_L_30
              {
                OFFSET 1.58761 -0.234954 0.295135
                CHANNELS 6 Xposition Yposition Zposition Zrotation Xrotation Yrotation
                JOINT BN_Toe_L_31
                {
                  OFFSET 3.03847 0 0
                  CHANNELS 6 Xposition Yposition Zposition Zrotation Xrotation Yrotation
                  End Site
                  {
                    OFFSET 0 0 0
                  }
                }
              }
              JOINT BN_Toe_L_20
              {
                OFFSET 1.4731 1.01055 1.1673
                CHANNELS 6 Xposition Yposition Zposition Zrotation Xrotation Yrotation
                JOINT BN_Toe_L_21
                {
                  OFFSET 3.94897 0 0
                  CHANNELS 6 Xposition Yposition Zposition Zrotation Xrotation Yrotation
                  End Site
                  {
                    OFFSET 0 0 0
                  }
                }
              }
              JOINT Bip01_L_Toe0
              {
                OFFSET 2.04238 1.88276 0
                CHANNELS 6 Xposition Yposition Zposition Zrotation Xrotation Yrotation
                End Site
                {
                  OFFSET 0 0 0
                }
              }
            }
          }
        }
      }
      JOINT Bip01_Spine1
      {
        OFFSET 8.6167 -0.00679016 0
        CHANNELS 6 Xposition Yposition Zposition Zrotation Xrotation Yrotation
        JOINT BN_Wing_R_01
        {
          OFFSET 0.267445 -6.12421 -7.49305
          CHANNELS 6 Xposition Yposition Zposition Zrotation Xrotation Yrotation
          JOINT BN_Wing_R_02
          {
            OFFSET 14.7158 0 0
            CHANNELS 6 Xposition Yposition Zposition Zrotation Xrotation Yrotation
            JOINT BN_Wing_R_03
            {
              OFFSET 19.0858 0 0
              CHANNELS 6 Xposition Yposition Zposition Zrotation Xrotation Yrotation
              JOINT BN_Wing_R_05
              {
                OFFSET 2.68908 -0.270637 0.785261
                CHANNELS 6 Xposition Yposition Zposition Zrotation Xrotation Yrotation
                JOINT BN_Wing_R_06
                {
                  OFFSET 21.1083 0 0
                  CHANNELS 6 Xposition Yposition Zposition Zrotation Xrotation Yrotation
                  End Site
                  {
                    OFFSET 0 0 0
                  }
                }
              }
              JOINT BN_Wing_R_04
              {
                OFFSET 27.642 0 0
                CHANNELS 6 Xposition Yposition Zposition Zrotation Xrotation Yrotation
                End Site
                {
                  OFFSET 0 0 0
                }
              }
            }
          }
        }
        JOINT BN_Wing_L_01
        {
          OFFSET 0.267452 -6.12421 7.49305
          CHANNELS 6 Xposition Yposition Zposition Zrotation Xrotation Yrotation
          JOINT BN_Wing_L_02
          {
            OFFSET 14.7158 0 0
            CHANNELS 6 Xposition Yposition Zposition Zrotation Xrotation Yrotation
            JOINT BN_Wing_L_03
            {
              OFFSET 19.0858 0 0
              CHANNELS 6 Xposition Yposition Zposition Zrotation Xrotation Yrotation
              JOINT BN_Wing_L_05
              {
                OFFSET 2.68908 -0.270635 -0.785254
                CHANNELS 6 Xposition Yposition Zposition Zrotation Xrotation Yrotation
                JOINT BN_Wing_L_06
                {
                  OFFSET 21.1083 0 0
                  CHANNELS 6 Xposition Yposition Zposition Zrotation Xrotation Yrotation
                  End Site
                  {
                    OFFSET 0 0 0
                  }
                }
              }
              JOINT BN_Wing_L_04
              {
                OFFSET 27.642 0 1.14441e-005
                CHANNELS 6 Xposition Yposition Zposition Zrotation Xrotation Yrotation
                End Site
                {
                  OFFSET 0 0 0
                }
              }
            }
          }
        }
        JOINT Bip01_Neck
        {
          OFFSET 7.59958 -1.43237 0
          CHANNELS 6 Xposition Yposition Zposition Zrotation Xrotation Yrotation
          JOINT Bip01_Neck1
          {
            OFFSET 3.64749 -0.00262451 0
            CHANNELS 6 Xposition Yposition Zposition Zrotation Xrotation Yrotation
            JOINT Bip01_Neck2
            {
              OFFSET 3.32331 -0.00284576 0
              CHANNELS 6 Xposition Yposition Zposition Zrotation Xrotation Yrotation
              JOINT Bip01_Head
              {
                OFFSET 4.63256 -0.573471 0
                CHANNELS 6 Xposition Yposition Zposition Zrotation Xrotation Yrotation
                JOINT BN_Jaw
                {
                  OFFSET 1.05386 2.23561 0
                  CHANNELS 6 Xposition Yposition Zposition Zrotation Xrotation Yrotation
                  End Site
                  {
                    OFFSET 0 0 0
                  }
                }
              }
            }
          }
        }
      }
    }
  }
}
MOTION
Frames:	4
Frame Time:	0.0333333
32.2933 76.5216 0.573552 -163.664 -83.4433 -95.4231 0 0 0 -89.9947 9.57722 -89.9947 -4.65442 -2.06234 1.77636e-015 -26.5011 1.9895 -179.946 10.228 -0.119785 3.68891 40.7291 74.8676 -74.4099 15.0421 -2.38419e-007 0 5.14461 -4.4836 -38.9045 10.2278 -0.11977 -3.68914 -131.86 73.5016 102.709 15.0421 1.77636e-015 -3.8147e-006 -5.15224 4.48281 -38.908 3.04981 0.628586 -9.31326e-010 -9.39685 -0.0719039 0.106377 -2.89564 -1.10973 -6.21282 -135.325 -3.43775 -170.16 6.7325 3.8147e-006 -1.90735e-006 -77.9058 1.13607e-006 9.83986e-006 8.08525 -3.8147e-006 -5.32907e-015 104.075 1.03915e-005 -3.09277e-007 8.97521 3.8147e-006 0 -46.1703 -2.52478 -15.3989 1.58764 -0.235001 -0.295147 133.163 3.62565 167.464 3.03847 3.8147e-006 5.72205e-006 13.5224 0.0040628 0.0168828 1.65462 0.933647 1.02414 67.0043 32.3721 -37.6018 3.51774 -6.25278e-013 0 53.5584 -3.90977 4.36452 1.4731 1.01059 -1.16707 58.0497 -13.2982 25.8687 3.94899 7.6294e-006 3.8147e-006 49.854 1.27314 0.648236 1.07521 1.64223 0.0223651 57.7448 -6.20338 -0.707577 4.09657 -1.06581e-014 1.19209e-007 54.5324 0.00157172 0.00110726 2.04238 1.88274 4.74917e-007 87.242 -3.82444 23.6351 -2.91922 -1.12565 6.19874 -126.636 0.755587 172.088 6.73249 7.6294e-006 -1.90735e-006 -60.1596 -2.72483e-006 1.86858e-006 8.08523 -7.10543e-015 -8.88179e-016 102.861 4.56917e-006 1.3706e-005 8.9752 0 9.53675e-007 -55.2597 0.959916 13.6406 1.65462 0.933692 -1.02419 88.2005 -25.4826 40.8965 3.51775 -7.10542e-015 -2.13163e-014 41.9266 -0.206011 1.65191 1.07522 1.64219 -0.0221255 70.5836 -3.24604 5.15662 4.09656 -3.81469e-006 -3.55271e-015 50.6087 1.70938e-005 -3.03762e-006 1.58763 -0.234947 0.295136 154.961 5.84263 -179.265 3.0385 7.62939e-006 -2.2915e-013 3.83011 9.59756e-006 -2.57733e-007 1.4731 1.01055 1.1673 74.9653 6.59946 -10.8736 3.94895 -1.15463e-014 1.90735e-006 6.50982 -1.02614 -0.242909 2.04238 1.88275 2.19164e-007 123.349 2.65357 -28.4843 8.61717 -0.0068512 2.53879e-006 9.3469 -0.193629 -0.608744 0.267441 -6.12426 -7.49305 -83.7695 -11.5431 35.2113 14.7158 2.28882e-005 -7.10543e-015 95.2203 0.0558598 -2.25039 19.0859 1.42108e-014 -7.10543e-015 -108.938 -6.06538 25.1753 2.68911 -0.270629 0.785263 -43.9508 2.68085 -0.988995 21.1082 7.62939e-006 3.8147e-006 -2.08109 -1.93726 -7.58988 27.642 -1.42108e-014 -7.6294e-006 -23.5132 -9.88056 -5.36691 0.267464 -6.12426 7.49305 -83.7695 11.5431 -35.2113 14.7158 -1.42109e-014 1.90735e-006 95.2203 -0.0558445 2.25039 19.0859 -1.42108e-014 1.90735e-006 -108.938 6.06537 -25.1753 2.68911 -0.270652 -0.785278 -43.9508 -2.68086 0.988994 21.1083 1.52588e-005 -1.14441e-005 -2.08109 1.93727 7.58987 27.642 9.09494e-013 9.09495e-013 -23.5133 9.88057 5.36693 7.59942 -1.43242 3.55271e-015 25.3366 -5.22342 2.14723 3.64919 -0.00226212 -9.33593e-010 3.30022 -1.08615 0.188734 3.32337 -0.00286102 -9.35266e-010 3.20639 2.77789 0.366682 4.63255 -0.573479 -1.06089e-009 12.5287 -25.0488 -4.00525 1.05388 2.23563 1.2231e-007 -105.741 0.0186462 -179.965 
32.9764 76.1012 0.701654 -162.074 -83.6653 -97.6164 0 0 0 -89.9946 9.57721 -89.9948 -4.65442 -2.06234 3.55271e-015 -24.4837 1.98605 179.974 10.228 -0.119785 3.68891 41.8002 77.7776 -63.6695 15.0421 -2.38419e-007 0 5.15689 -4.50592 -40.9654 10.2278 -0.11977 -3.68914 -130.826 76.1026 113.462 15.0421 1.77636e-015 -3.8147e-006 -5.15695 4.50591 -40.9654 3.04981 0.628586 -9.31323e-010 -8.02921 -0.107201 0.376875 -2.89157 -1.03599 -6.22721 -125.955 -4.31138 -171.014 6.7325 3.8147e-006 -1.90735e-006 -73.5434 1.84761e-005 4.82291e-006 8.08525 -3.8147e-006 -3.55271e-015 96.4405 3.85767e-007 2.19778e-006 8.97521 3.8147e-006 0 -36.4543 -4.44537 -14.838 1.58764 -0.235001 -0.295147 130.93 4.14361 167.595 3.03847 3.8147e-006 5.72205e-006 13.8662 0.00836322 0.0338694 1.65462 0.933647 1.02414 65.0178 33.7027 -36.9029 3.51774 -6.14619e-013 0 55.552 -3.62343 4.42827 1.4731 1.01059 -1.16707 59.8043 -12.4143 26.36 3.94899 7.6294e-006 3.8147e-006 50.2799 1.26664 0.603777 1.07521 1.64223 0.0223651 59.7119 -6.23061 -0.550184 4.09657 -3.55271e-015 1.19209e-007 55.7782 0.00217472 0.00146693 2.04238 1.88274 4.75313e-007 87.2529 -3.77466 23.7955 -2.97356 -1.06001 6.18404 -116.473 1.94288 173.358 6.73249 7.6294e-006 -1.90735e-006 -50.6249 -1.08158e-005 8.16961e-006 8.08523 -1.42109e-014 1.77636e-015 94.9159 2.37751e-006 1.33994e-005 8.9752 7.10542e-015 9.53674e-007 -47.2959 2.89025 12.7811 1.65462 0.933692 -1.02419 88.7652 -24.842 41.3188 3.51775 3.55271e-015 -1.42109e-014 43.5849 -0.143716 1.6273 1.07522 1.64219 -0.0221255 71.0494 -3.17692 5.25258 4.09656 -3.81469e-006 -3.55271e-015 52.4518 9.35875e-006 -9.3181e-006 1.58763 -0.234947 0.295136 150.674 5.79904 -178.756 3.0385 7.62939e-006 -2.06057e-013 11.2536 -0.0100763 -0.0506887 1.4731 1.01055 1.1673 75.7307 6.35213 -10.9613 3.94895 -7.32746e-015 1.90735e-006 8.12804 -1.0117 -0.226148 2.04238 1.88275 2.22922e-007 123.083 2.45651 -28.6768 8.61717 -0.0068512 2.53879e-006 12.7042 -0.302437 -0.905005 0.267441 -6.12426 -7.49305 -85.4515 -11.6279 38.4716 14.7158 2.28882e-005 -7.10543e-015 96.9524 0.0063486 -2.25997 19.0859 -4.26325e-014 -7.10543e-015 -111.935 -6.23399 25.0156 2.68911 -0.270629 0.785263 -43.9353 2.68068 -1.40206 21.1082 7.62939e-006 3.8147e-006 -2.07583 -1.92118 -10.4563 27.642 0 -7.6294e-006 -27.4262 -10.9391 -7.74953 0.267464 -6.12426 7.49305 -85.4515 11.6279 -38.4716 14.7158 0 1.90735e-006 96.9524 -0.00635339 2.25997 19.0859 2.13163e-014 1.90735e-006 -111.935 6.23398 -25.0156 2.68911 -0.270652 -0.785278 -43.9353 -2.68069 1.40206 21.1083 1.52588e-005 -1.14441e-005 -2.07583 1.92118 10.4563 27.642 9.09494e-013 9.23706e-013 -27.4262 10.9391 7.74955 7.59942 -1.43242 0 21.9971 -2.395 2.11186 3.64919 -0.00226212 -9.32005e-010 4.83578 -0.800901 -0.198936 3.32337 -0.00286102 -9.32495e-010 5.20577 2.98034 0.0356472 4.63255 -0.573479 -8.88569e-010 23.9733 -30.1502 -1.49592 1.05388 2.23563 1.38671e-007 -105.741 0.0166168 -179.966 
33.5837 75.5195 0.759564 -161.788 -84.6513 -101.106 0 0 0 -89.9946 9.57721 -89.9948 -4.65442 -2.06234 0 -22.0125 1.98401 179.928 10.228 -0.119785 3.68891 36.8191 80.2871 -43.7649 15.0421 -2.38419e-007 -3.55271e-015 5.14726 -4.57646 -42.0177 10.2278 -0.11977 -3.68914 -134.141 78.241 131.704 15.0421 0 -3.8147e-006 -5.15492 4.57588 -42.0213 3.04981 0.628586 -9.31323e-010 -7.0121 -0.131675 0.605087 -2.88462 -0.981232 -6.23908 -116.771 -5.19129 -171.541 6.7325 3.8147e-006 -1.90735e-006 -68.3586 0.00182187 -0.000712242 8.08525 -3.8147e-006 -3.55271e-015 89.927 1.33964e-007 2.22736e-006 8.97521 3.8147e-006 -8.88179e-016 -28.6443 -6.08253 -14.2004 1.58764 -0.235001 -0.295147 129.455 4.48918 167.627 3.03847 3.8147e-006 5.72205e-006 14.2033 0.0127749 0.0504635 1.65462 0.933647 1.02414 63.5192 34.6976 -36.3131 3.51774 -6.25278e-013 7.10543e-015 56.9427 -3.40798 4.42753 1.4731 1.01059 -1.16707 61.7668 -11.483 26.6982 3.94899 7.6294e-006 3.8147e-006 50.6975 1.25995 0.560225 1.07521 1.64223 0.0223651 61.8597 -6.24643 -0.316043 4.09657 -2.13163e-014 1.19209e-007 56.9998 0.00280409 0.001809 2.04238 1.88274 4.75825e-007 87.2634 -3.72576 23.9527 -3.01595 -1.01055 6.17174 -108.045 3.05297 174.04 6.73249 7.6294e-006 -1.90735e-006 -43.0746 -9.64037e-006 9.05414e-006 8.08523 -7.10543e-015 -2.66454e-015 88.7029 7.2928e-007 1.35201e-005 8.9752 0 9.53674e-007 -42.0349 4.0868 11.908 1.65462 0.933692 -1.02419 89.1312 -24.4011 41.6494 3.51775 -1.42108e-014 0 44.6565 -0.124079 1.54814 1.07522 1.64219 -0.0221255 71.506 -3.10836 5.34612 4.09656 -3.81469e-006 1.77636e-015 53.6709 8.84573e-006 -9.06432e-006 1.58763 -0.234947 0.295136 147.751 5.79826 -178.501 3.0385 7.62939e-006 -2.22045e-013 16.4865 8.87499e-006 -2.53009e-006 1.4731 1.01055 1.1673 76.6313 6.03454 -11.1059 3.94895 -7.9936e-015 1.90735e-006 9.71484 -0.997094 -0.210092 2.04238 1.88275 2.27496e-007 122.821 2.26417 -28.8664 8.61717 -0.0068512 2.53879e-006 11.5719 -0.394993 -0.810644 0.267441 -6.12426 -7.49305 -86.6849 -11.0542 40.2764 14.7158 2.28882e-005 7.10543e-015 97.602 -0.0139548 -2.26193 19.0859 -1.42108e-014 7.10543e-015 -113.081 -6.30828 24.73 2.68911 -0.270629 0.785263 -43.9288 2.67786 -1.55274 21.1082 7.62939e-006 3.8147e-006 -2.07372 -1.91448 -11.507 27.642 0 -7.6294e-006 -28.9054 -11.3244 -8.615 0.267464 -6.12426 7.49305 -86.6849 11.0542 -40.2764 14.7158 0 1.90735e-006 97.602 0.0139569 2.26193 19.0859 0 1.90735e-006 -113.081 6.30826 -24.73 2.68911 -0.270652 -0.785278 -43.9288 -2.67787 1.55274 21.1083 1.52588e-005 -1.14441e-005 -2.07372 1.91449 11.507 27.642 9.09494e-013 9.09495e-013 -28.9055 11.3244 8.615 7.59942 -1.43242 2.66454e-015 17.1092 0.328309 2.1823 3.64919 -0.00226212 -9.31376e-010 6.8584 -0.617706 -0.719739 3.32337 -0.00286102 -9.31387e-010 7.62849 2.88491 -0.420263 4.63255 -0.573479 -9.08989e-010 36.271 -33.3906 1.08698 1.05388 2.23563 1.45974e-007 -105.74 0.0146484 -179.966 
33.7503 74.9413 0.763158 -164.554 -86.2618 -108.101 0 0 0 -89.9946 9.57719 -89.9947 -4.65442 -2.06234 3.55271e-015 -19.6867 1.98071 179.907 10.228 -0.119785 3.68891 28.35 81.0727 -20.5258 15.0421 -2.38419e-007 -1.46549e-014 5.14022 -4.63472 -42.2511 10.2278 -0.11977 -3.68914 -139.212 78.8194 151.598 15.0421 0 -3.8147e-006 -5.14406 4.63445 -42.2529 3.04981 0.628586 -9.31323e-010 -6.15709 -0.148153 0.801052 -2.8776 -0.935692 -6.24936 -108.639 -5.85661 -171.678 6.7325 3.8147e-006 -1.90735e-006 -62.2889 3.74689e-006 9.16924e-006 8.08525 -3.8147e-006 -2.66454e-015 85.4987 -3.84118e-008 2.23105e-006 8.97521 3.8147e-006 -1.33227e-015 -23.6931 -7.39684 -13.5844 1.58764 -0.235001 -0.295147 128.939 4.61093 167.757 3.03847 3.8147e-006 5.72205e-006 15.1224 0.00446477 0.0165122 1.65462 0.933647 1.02414 62.9822 35.0552 -36.1623 3.51774 -5.7554e-013 7.10543e-015 57.1469 -3.18734 4.44706 1.4731 1.01059 -1.16707 64.0085 -10.4896 26.7609 3.94899 7.6294e-006 3.8147e-006 51.7142 1.23894 0.49552 1.07522 1.64223 0.0223651 64.2494 -6.25245 -0.0485913 4.09657 -3.19744e-014 1.19209e-007 58.6377 5.11478e-006 -8.65996e-006 2.04238 1.88274 4.76244e-007 87.274 -3.67638 24.1115 -3.05241 -0.967851 6.16094 -102.983 3.76057 174.2 6.73249 7.6294e-006 -1.90735e-006 -38.8893 -8.50525e-006 9.47768e-006 8.08523 1.42109e-014 -4.44089e-016 85.4988 -2.51072e-007 1.39568e-005 8.9752 0 9.53674e-007 -40.7756 4.42594 11.42 1.65462 0.933692 -1.02419 89.2469 -24.2462 41.7436 3.51775 -1.06581e-014 0 44.8446 -0.0718357 1.49 1.07522 1.64219 -0.0221255 72.052 -3.03627 5.38319 4.09656 -3.81469e-006 0 53.8965 8.29826e-006 -8.87629e-006 1.58763 -0.234947 0.295136 146.625 5.7576 -178.39 3.0385 7.62939e-006 -2.62901e-013 18.4857 8.76113e-006 -2.62559e-006 1.4731 1.01055 1.1673 77.7508 5.61488 -11.3358 3.94895 -1.42108e-014 1.90735e-006 12.1778 -0.981252 -0.197792 2.04238 1.88275 2.31396e-007 122.734 2.20107 -28.929 8.61717 -0.0068512 2.53879e-006 7.34374 -0.518615 -0.436304 0.267441 -6.12426 -7.49305 -87.5487 -9.48029 39.5219 14.7158 2.28882e-005 1.06581e-014 96.184 0.0322543 -2.24557 19.0859 1.42108e-014 -1.06581e-014 -111.051 -5.8641 22.5712 2.68911 -0.270629 0.785263 -43.931 2.68011 -1.42731 21.1082 7.62939e-006 3.8147e-006 -2.07679 -1.92641 -9.70853 27.642 2.84217e-014 -7.6294e-006 -26.8995 -10.8068 -7.03784 0.267464 -6.12426 7.49305 -87.5487 9.48028 -39.5219 14.7158 0 1.90735e-006 96.184 -0.0322438 2.24557 19.0859 7.10542e-015 1.90735e-006 -111.051 5.86408 -22.5712 2.68911 -0.270652 -0.785278 -43.9311 -2.6801 1.4273 21.1083 1.52588e-005 -1.14441e-005 -2.07679 1.92641 9.70852 27.642 9.09494e-013 9.02389e-013 -26.8995 10.8068 7.03785 7.59942 -1.43242 0 12.5809 2.04764 2.38903 3.64919 -0.00226212 -9.31353e-010 8.52022 -0.356514 -1.20788 3.32337 -0.00286102 -9.31304e-010 9.91555 2.93652 -0.792052 4.63255 -0.573479 -9.23528e-010 45.397 -32.8196 2.92811 1.05388 2.23563 1.26995e-007 -105.74 0.0126495 -179.967 
